<svg width="117" height="27" viewBox="0 0 117 27" fill="none" xmlns="http://www.w3.org/2000/svg">
<path d="M4.464 23.18C3.756 23.18 3.174 23.132 2.718 23.036C2.262 22.952 1.896 22.826 1.62 22.658C1.356 22.478 1.17 22.256 1.062 21.992C0.966 21.728 0.918 21.416 0.918 21.056C0.918 20.948 0.924 20.798 0.936 20.606C0.948 20.402 0.966 20.12 0.99 19.76C1.014 19.4 1.044 18.938 1.08 18.374C1.128 17.798 1.188 17.078 1.26 16.214C1.344 15.146 1.41 14.3 1.458 13.676C1.506 13.052 1.542 12.572 1.566 12.236C1.59 11.888 1.602 11.648 1.602 11.516C1.614 11.372 1.62 11.252 1.62 11.156C1.62 10.964 1.62 10.808 1.62 10.688C1.632 10.568 1.644 10.478 1.656 10.418C1.68 10.346 1.71 10.298 1.746 10.274C1.794 10.238 1.86 10.22 1.944 10.22C2.652 10.172 3.252 10.136 3.744 10.112C4.248 10.088 4.686 10.076 5.058 10.076C5.97 10.076 6.75 10.154 7.398 10.31C8.058 10.454 8.592 10.664 9 10.94C9.408 11.216 9.708 11.558 9.9 11.966C10.092 12.374 10.188 12.836 10.188 13.352C10.188 13.64 10.158 13.94 10.098 14.252C10.038 14.552 9.936 14.84 9.792 15.116C9.648 15.392 9.45 15.638 9.198 15.854C8.958 16.058 8.652 16.208 8.28 16.304C8.976 16.52 9.468 16.88 9.756 17.384C10.044 17.876 10.188 18.464 10.188 19.148C10.188 19.7 10.098 20.222 9.918 20.714C9.738 21.194 9.426 21.62 8.982 21.992C8.538 22.352 7.95 22.64 7.218 22.856C6.486 23.072 5.568 23.18 4.464 23.18ZM5.49 17.6C5.358 17.6 5.196 17.612 5.004 17.636C4.812 17.648 4.614 17.672 4.41 17.708L4.212 20.642C4.644 20.774 5.034 20.84 5.382 20.84C5.754 20.84 6.054 20.786 6.282 20.678C6.51 20.57 6.684 20.438 6.804 20.282C6.936 20.114 7.02 19.934 7.056 19.742C7.104 19.538 7.128 19.352 7.128 19.184C7.128 18.74 7.002 18.368 6.75 18.068C6.51 17.756 6.09 17.6 5.49 17.6ZM4.734 12.65C4.71 12.962 4.686 13.328 4.662 13.748C4.65 14.168 4.626 14.624 4.59 15.116C4.974 15.212 5.316 15.26 5.616 15.26C5.976 15.26 6.264 15.218 6.48 15.134C6.696 15.05 6.864 14.942 6.984 14.81C7.116 14.678 7.2 14.534 7.236 14.378C7.284 14.222 7.308 14.072 7.308 13.928C7.308 13.556 7.182 13.238 6.93 12.974C6.69 12.698 6.27 12.56 5.67 12.56C5.538 12.56 5.388 12.572 5.22 12.596C5.064 12.608 4.902 12.626 4.734 12.65Z" fill="#0984E3"/>
<path d="M28.75 12.74L28.066 22.73C28.054 22.91 27.988 23 27.868 23H26.878C26.206 23 25.726 22.868 25.438 22.604C25.15 22.34 25.006 21.962 25.006 21.47C25.006 21.29 25.012 21.02 25.024 20.66C25.048 20.3 25.078 19.88 25.114 19.4C25.15 18.908 25.186 18.38 25.222 17.816C25.27 17.24 25.318 16.664 25.366 16.088C25.414 15.5 25.456 14.918 25.492 14.342C25.54 13.766 25.582 13.232 25.618 12.74H22.738C22.606 12.74 22.54 12.656 22.54 12.488L22.594 11.48C22.606 11.324 22.63 11.174 22.666 11.03C22.714 10.874 22.786 10.736 22.882 10.616C22.978 10.496 23.098 10.4 23.242 10.328C23.398 10.256 23.584 10.22 23.8 10.22H31.846C31.918 10.22 31.984 10.238 32.044 10.274C32.104 10.31 32.134 10.376 32.134 10.472L32.062 11.534C32.038 11.894 31.936 12.188 31.756 12.416C31.588 12.632 31.234 12.74 30.694 12.74H28.75Z" fill="#0984E3"/>
<path d="M13.6987 13.8637L15.6846 15.0834L17.8153 14.1393L17.3084 21.7121L13.1918 21.4366L13.6987 13.8637Z" fill="#0984E3"/>
<path d="M17.3084 21.7121L13.1918 21.4366L15.1414 23.1971L17.3084 21.7121Z" fill="#0984E3"/>
<circle cx="16.3074" cy="6.97491" r="5.96341" transform="rotate(3.82953 16.3074 6.97491)" fill="#0984E3"/>
<path d="M12.521 6.72145L16.4885 4.27032L20.0938 7.22836L19.9128 9.93295L16.3074 6.97491L12.3399 9.42604L12.521 6.72145Z" fill="white"/>
<path d="M38.328 23C37.608 23 37.116 22.862 36.852 22.586C36.588 22.298 36.456 21.86 36.456 21.272C36.456 21.068 36.468 20.738 36.492 20.282C36.516 19.826 36.57 19.118 36.654 18.158C36.558 17.978 36.474 17.822 36.402 17.69C36.33 17.558 36.258 17.42 36.186 17.276C36.114 17.132 36.036 16.964 35.952 16.772C35.868 16.58 35.76 16.34 35.628 16.052C35.424 15.608 35.19 15.092 34.926 14.504C34.674 13.916 34.428 13.352 34.188 12.812C33.948 12.26 33.744 11.774 33.576 11.354C33.42 10.934 33.342 10.67 33.342 10.562C33.342 10.31 33.744 10.184 34.548 10.184C35.052 10.184 35.454 10.238 35.754 10.346C36.066 10.442 36.318 10.58 36.51 10.76C36.702 10.928 36.846 11.132 36.942 11.372C37.038 11.6 37.128 11.846 37.212 12.11C37.32 12.458 37.398 12.716 37.446 12.884C37.494 13.052 37.53 13.19 37.554 13.298C37.59 13.406 37.626 13.514 37.662 13.622C37.698 13.718 37.746 13.874 37.806 14.09C37.878 14.306 37.974 14.606 38.094 14.99C38.214 15.374 38.382 15.902 38.598 16.574C38.946 15.842 39.222 15.248 39.426 14.792C39.642 14.336 39.828 13.916 39.984 13.532C40.14 13.136 40.284 12.734 40.416 12.326C40.56 11.906 40.74 11.378 40.956 10.742C41.028 10.514 41.1 10.37 41.172 10.31C41.256 10.238 41.382 10.202 41.55 10.202C41.61 10.202 41.772 10.214 42.036 10.238C42.312 10.25 42.594 10.292 42.882 10.364C43.182 10.436 43.452 10.55 43.692 10.706C43.932 10.862 44.052 11.072 44.052 11.336C44.052 11.54 43.98 11.828 43.836 12.2C43.704 12.572 43.524 12.992 43.296 13.46C43.08 13.916 42.822 14.402 42.522 14.918C42.234 15.434 41.934 15.938 41.622 16.43C41.31 16.922 40.998 17.378 40.686 17.798C40.386 18.206 40.11 18.542 39.858 18.806C39.846 19.094 39.828 19.436 39.804 19.832C39.792 20.228 39.768 20.624 39.732 21.02C39.708 21.404 39.684 21.758 39.66 22.082C39.636 22.394 39.618 22.61 39.606 22.73C39.594 22.826 39.57 22.898 39.534 22.946C39.498 22.982 39.426 23 39.318 23H38.328ZM48.4723 23.18C47.6443 23.18 46.9543 23.066 46.4023 22.838C45.8623 22.598 45.4303 22.274 45.1063 21.866C44.7823 21.458 44.5543 20.984 44.4223 20.444C44.2903 19.892 44.2243 19.304 44.2243 18.68C44.2243 17.96 44.3083 17.258 44.4763 16.574C44.6563 15.878 44.9563 15.26 45.3763 14.72C45.7963 14.18 46.3483 13.748 47.0323 13.424C47.7283 13.088 48.5923 12.92 49.6243 12.92C51.1363 12.92 52.2163 13.292 52.8643 14.036C53.5243 14.768 53.8543 15.8 53.8543 17.132C53.8543 17.504 53.8243 17.918 53.7643 18.374C53.7163 18.818 53.6143 19.262 53.4583 19.706C53.3143 20.15 53.1103 20.582 52.8463 21.002C52.5943 21.422 52.2703 21.794 51.8743 22.118C51.4783 22.442 50.9983 22.7 50.4343 22.892C49.8823 23.084 49.2283 23.18 48.4723 23.18ZM49.3183 15.314C48.8623 15.314 48.4963 15.434 48.2203 15.674C47.9563 15.902 47.7523 16.184 47.6083 16.52C47.4763 16.844 47.3863 17.192 47.3383 17.564C47.3023 17.924 47.2843 18.23 47.2843 18.482C47.2843 19.274 47.4103 19.856 47.6623 20.228C47.9143 20.6 48.2743 20.786 48.7423 20.786C49.1623 20.786 49.5043 20.654 49.7683 20.39C50.0443 20.126 50.2543 19.808 50.3983 19.436C50.5543 19.064 50.6563 18.674 50.7043 18.266C50.7643 17.858 50.7943 17.516 50.7943 17.24C50.7943 16.64 50.6803 16.172 50.4523 15.836C50.2363 15.488 49.8583 15.314 49.3183 15.314ZM59.2661 14.63C59.2661 14.882 59.2421 15.236 59.1941 15.692C59.1581 16.148 59.1161 16.622 59.0681 17.114C59.0321 17.606 58.9901 18.068 58.9421 18.5C58.9061 18.932 58.8881 19.244 58.8881 19.436C58.8881 19.856 58.9901 20.186 59.1941 20.426C59.4101 20.654 59.7041 20.768 60.0761 20.768C60.4001 20.768 60.6701 20.642 60.8861 20.39C61.1141 20.126 61.2941 19.79 61.4261 19.382C61.5701 18.962 61.6841 18.488 61.7681 17.96C61.8521 17.432 61.9121 16.898 61.9481 16.358C61.9961 15.818 62.0321 15.296 62.0561 14.792C62.0921 14.276 62.1281 13.832 62.1641 13.46C62.1761 13.364 62.2121 13.28 62.2721 13.208C62.3321 13.136 62.4281 13.1 62.5601 13.1H63.2081C63.5801 13.1 63.8801 13.142 64.1081 13.226C64.3481 13.298 64.5341 13.406 64.6661 13.55C64.8101 13.694 64.9061 13.874 64.9541 14.09C65.0141 14.294 65.0441 14.534 65.0441 14.81C65.0441 14.99 65.0321 15.248 65.0081 15.584C64.9961 15.908 64.9661 16.364 64.9181 16.952C64.8701 17.528 64.8101 18.266 64.7381 19.166C64.6781 20.054 64.6001 21.158 64.5041 22.478C64.4801 22.73 64.4501 22.88 64.4141 22.928C64.3901 22.976 64.2941 23 64.1261 23H63.4241C63.0641 23 62.7641 22.958 62.5241 22.874C62.2961 22.79 62.1101 22.682 61.9661 22.55C61.8221 22.418 61.7201 22.262 61.6601 22.082C61.6001 21.902 61.5641 21.716 61.5521 21.524C61.3721 21.836 61.1681 22.1 60.9401 22.316C60.7241 22.532 60.4961 22.706 60.2561 22.838C60.0161 22.958 59.7701 23.042 59.5181 23.09C59.2661 23.15 59.0201 23.18 58.7801 23.18C58.3241 23.18 57.9161 23.108 57.5561 22.964C57.1961 22.808 56.8901 22.604 56.6381 22.352C56.3981 22.1 56.2121 21.8 56.0801 21.452C55.9481 21.104 55.8821 20.732 55.8821 20.336C55.8821 20.18 55.8881 19.928 55.9001 19.58C55.9241 19.22 55.9481 18.818 55.9721 18.374C56.0081 17.93 56.0441 17.462 56.0801 16.97C56.1161 16.466 56.1461 15.992 56.1701 15.548C56.2061 15.104 56.2361 14.714 56.2601 14.378C56.2961 14.042 56.3201 13.802 56.3321 13.658C56.3561 13.442 56.4041 13.298 56.4761 13.226C56.5481 13.142 56.6681 13.1 56.8361 13.1H57.4121C57.7841 13.1 58.0901 13.136 58.3301 13.208C58.5701 13.28 58.7561 13.382 58.8881 13.514C59.0321 13.646 59.1281 13.808 59.1761 14C59.2361 14.18 59.2661 14.39 59.2661 14.63ZM73.389 21.416C73.389 21.152 73.407 20.81 73.443 20.39C73.491 19.958 73.533 19.508 73.569 19.04C73.617 18.56 73.659 18.098 73.695 17.654C73.743 17.21 73.767 16.838 73.767 16.538C73.767 16.226 73.689 15.95 73.533 15.71C73.389 15.458 73.101 15.332 72.669 15.332C72.249 15.332 71.901 15.434 71.625 15.638C71.349 15.842 71.115 16.214 70.923 16.754C70.743 17.294 70.593 18.038 70.473 18.986C70.353 19.934 70.239 21.152 70.131 22.64C70.119 22.784 70.089 22.88 70.041 22.928C69.993 22.976 69.891 23 69.735 23H69.087C68.715 23 68.409 22.964 68.169 22.892C67.941 22.808 67.755 22.694 67.611 22.55C67.479 22.406 67.383 22.232 67.323 22.028C67.275 21.812 67.251 21.566 67.251 21.29C67.251 21.11 67.257 20.858 67.269 20.534C67.293 20.198 67.329 19.742 67.377 19.166C67.425 18.578 67.479 17.84 67.539 16.952C67.611 16.052 67.695 14.942 67.791 13.622C67.803 13.358 67.833 13.202 67.881 13.154C67.917 13.118 68.013 13.1 68.169 13.1H68.871C69.231 13.1 69.525 13.142 69.753 13.226C69.993 13.31 70.185 13.424 70.329 13.568C70.473 13.7 70.575 13.862 70.635 14.054C70.695 14.234 70.731 14.42 70.743 14.612C71.115 13.976 71.541 13.538 72.021 13.298C72.501 13.046 73.101 12.92 73.821 12.92C74.325 12.92 74.763 12.974 75.135 13.082C75.507 13.19 75.813 13.376 76.053 13.64C76.305 13.892 76.491 14.228 76.611 14.648C76.731 15.056 76.791 15.566 76.791 16.178C76.791 16.37 76.779 16.646 76.755 17.006C76.731 17.366 76.701 17.762 76.665 18.194C76.629 18.614 76.587 19.058 76.539 19.526C76.503 19.982 76.467 20.408 76.431 20.804C76.395 21.2 76.365 21.548 76.341 21.848C76.317 22.148 76.305 22.346 76.305 22.442C76.305 22.706 76.275 22.868 76.215 22.928C76.155 22.976 76.023 23 75.819 23H75.243C74.859 23 74.547 22.964 74.307 22.892C74.067 22.82 73.881 22.718 73.749 22.586C73.617 22.454 73.521 22.292 73.461 22.1C73.413 21.896 73.389 21.668 73.389 21.416ZM84.9116 20.876C84.6116 21.416 84.2456 21.818 83.8136 22.082C83.3816 22.334 82.8416 22.46 82.1936 22.46C81.7016 22.46 81.2516 22.382 80.8436 22.226C80.4356 22.07 80.0876 21.824 79.7996 21.488C79.5116 21.152 79.2836 20.732 79.1156 20.228C78.9596 19.712 78.8816 19.1 78.8816 18.392C78.8816 17.816 78.9416 17.21 79.0616 16.574C79.1816 15.926 79.3976 15.332 79.7096 14.792C80.0336 14.252 80.4716 13.808 81.0236 13.46C81.5756 13.1 82.2836 12.92 83.1476 12.92C83.5076 12.92 83.8136 12.962 84.0656 13.046C84.3296 13.118 84.5516 13.22 84.7316 13.352C84.9236 13.484 85.0736 13.64 85.1816 13.82C85.3016 14 85.3916 14.192 85.4516 14.396C85.4516 14.408 85.4516 14.366 85.4516 14.27C85.4636 14.162 85.4756 14.042 85.4876 13.91C85.4996 13.778 85.5056 13.652 85.5056 13.532C85.5176 13.4 85.5236 13.316 85.5236 13.28C85.5356 13.16 85.6136 13.1 85.7576 13.1H86.5856C87.2096 13.1 87.6596 13.232 87.9356 13.496C88.2236 13.748 88.3676 14.234 88.3676 14.954C88.3676 15.05 88.3616 15.272 88.3496 15.62C88.3376 15.956 88.3136 16.364 88.2776 16.844C88.2536 17.324 88.2176 17.858 88.1696 18.446C88.1216 19.022 88.0676 19.604 88.0076 20.192C87.9476 20.78 87.8816 21.344 87.8096 21.884C87.7376 22.424 87.6596 22.898 87.5756 23.306C87.4916 23.714 87.3476 24.11 87.1436 24.494C86.9396 24.878 86.6516 25.22 86.2796 25.52C85.9076 25.82 85.4276 26.06 84.8396 26.24C84.2636 26.42 83.5556 26.51 82.7156 26.51C82.0796 26.51 81.5216 26.45 81.0416 26.33C80.5736 26.21 80.1836 26.048 79.8716 25.844C79.5596 25.652 79.3196 25.43 79.1516 25.178C78.9956 24.926 78.9176 24.674 78.9176 24.422C78.9176 24.194 78.9656 23.996 79.0616 23.828C79.1576 23.66 79.2836 23.522 79.4396 23.414C79.5956 23.306 79.7636 23.222 79.9436 23.162C80.1356 23.114 80.3156 23.09 80.4836 23.09C80.6876 23.09 80.8376 23.15 80.9336 23.27C81.0296 23.39 81.1376 23.522 81.2576 23.666C81.3776 23.822 81.5456 23.96 81.7616 24.08C81.9776 24.2 82.3136 24.26 82.7696 24.26C83.5616 24.26 84.1136 23.966 84.4256 23.378C84.7496 22.802 84.9116 21.968 84.9116 20.876ZM83.3996 20.066C83.8316 20.066 84.1676 19.964 84.4076 19.76C84.6596 19.556 84.8516 19.31 84.9836 19.022C85.1156 18.734 85.1996 18.434 85.2356 18.122C85.2716 17.81 85.2896 17.54 85.2896 17.312C85.2896 16.592 85.1756 16.082 84.9476 15.782C84.7316 15.47 84.4016 15.314 83.9576 15.314C83.5136 15.314 83.1656 15.434 82.9136 15.674C82.6616 15.914 82.4696 16.202 82.3376 16.538C82.2176 16.862 82.1396 17.192 82.1036 17.528C82.0676 17.852 82.0496 18.104 82.0496 18.284C82.0496 18.884 82.1516 19.334 82.3556 19.634C82.5596 19.922 82.9076 20.066 83.3996 20.066ZM92.1135 13.37C92.1135 13.262 92.1315 13.19 92.1675 13.154C92.2035 13.118 92.3175 13.1 92.5095 13.1H93.1575C93.4575 13.1 93.7215 13.142 93.9495 13.226C94.1895 13.298 94.3875 13.394 94.5435 13.514C94.7115 13.622 94.8375 13.748 94.9215 13.892C95.0055 14.036 95.0475 14.18 95.0475 14.324C95.0475 14.396 95.0355 14.594 95.0115 14.918C94.9995 15.23 94.9755 15.626 94.9395 16.106C94.9035 16.574 94.8615 17.096 94.8135 17.672C94.7775 18.236 94.7355 18.812 94.6875 19.4C94.6515 19.976 94.6095 20.534 94.5615 21.074C94.5255 21.614 94.4955 22.082 94.4715 22.478C94.4115 23.33 94.2735 24.014 94.0575 24.53C93.8535 25.058 93.6015 25.466 93.3015 25.754C93.0015 26.054 92.6655 26.252 92.2935 26.348C91.9215 26.456 91.5375 26.51 91.1415 26.51C90.7935 26.51 90.4455 26.474 90.0975 26.402C89.7375 26.342 89.4135 26.246 89.1255 26.114C88.8375 25.982 88.6035 25.814 88.4235 25.61C88.2435 25.406 88.1535 25.166 88.1535 24.89C88.1535 24.602 88.2435 24.374 88.4235 24.206C88.5915 24.038 88.7955 23.912 89.0355 23.828C89.2635 23.744 89.4915 23.69 89.7195 23.666C89.9355 23.642 90.0975 23.63 90.2055 23.63C90.2415 23.63 90.2775 23.66 90.3135 23.72C90.3375 23.792 90.3735 23.864 90.4215 23.936C90.4575 24.02 90.5115 24.092 90.5835 24.152C90.6555 24.224 90.7575 24.26 90.8895 24.26C91.0335 24.26 91.1415 24.2 91.2135 24.08C91.2975 23.972 91.3635 23.786 91.4115 23.522C91.4595 23.258 91.5015 22.91 91.5375 22.478C91.5735 22.034 91.6095 21.482 91.6455 20.822L92.1135 13.37ZM91.9335 10.976C91.9335 10.496 92.1075 10.118 92.4555 9.842C92.8035 9.566 93.2715 9.428 93.8595 9.428C94.3755 9.428 94.7475 9.536 94.9755 9.752C95.2155 9.956 95.3355 10.232 95.3355 10.58C95.3355 11.024 95.1675 11.396 94.8315 11.696C94.5075 11.984 94.0275 12.128 93.3915 12.128C92.4195 12.128 91.9335 11.744 91.9335 10.976ZM96.6909 20.786C96.6909 19.706 97.1769 18.86 98.1489 18.248C99.1209 17.636 100.555 17.306 102.451 17.258C102.463 17.126 102.469 17.018 102.469 16.934C102.481 16.838 102.487 16.724 102.487 16.592C102.487 16.208 102.415 15.902 102.271 15.674C102.127 15.446 101.827 15.332 101.371 15.332C101.119 15.332 100.915 15.368 100.759 15.44C100.603 15.512 100.477 15.614 100.381 15.746C100.285 15.866 100.207 16.016 100.147 16.196C100.087 16.376 100.033 16.574 99.9849 16.79C99.9609 16.898 99.9069 16.97 99.8229 17.006C99.7389 17.03 99.6069 17.042 99.4269 17.042C98.2029 17.042 97.5909 16.58 97.5909 15.656C97.5909 15.284 97.6749 14.93 97.8429 14.594C98.0229 14.258 98.2809 13.97 98.6169 13.73C98.9649 13.478 99.3969 13.28 99.9129 13.136C100.429 12.992 101.029 12.92 101.713 12.92C103.045 12.92 104.011 13.196 104.611 13.748C105.211 14.3 105.511 15.08 105.511 16.088C105.511 16.22 105.493 16.46 105.457 16.808C105.433 17.144 105.397 17.504 105.349 17.888C105.313 18.26 105.277 18.614 105.241 18.95C105.217 19.286 105.205 19.52 105.205 19.652C105.205 19.952 105.259 20.168 105.367 20.3C105.475 20.42 105.595 20.504 105.727 20.552C105.871 20.6 105.997 20.636 106.105 20.66C106.213 20.684 106.267 20.744 106.267 20.84C106.267 21.104 106.231 21.374 106.159 21.65C106.087 21.926 105.967 22.178 105.799 22.406C105.643 22.634 105.421 22.82 105.133 22.964C104.857 23.108 104.515 23.18 104.107 23.18C103.531 23.18 103.099 23.042 102.811 22.766C102.523 22.49 102.331 22.106 102.235 21.614C101.947 22.034 101.569 22.4 101.101 22.712C100.645 23.024 100.045 23.18 99.3009 23.18C98.9409 23.18 98.5989 23.138 98.2749 23.054C97.9629 22.97 97.6869 22.832 97.4469 22.64C97.2189 22.448 97.0329 22.202 96.8889 21.902C96.7569 21.59 96.6909 21.218 96.6909 20.786ZM102.289 18.734C101.977 18.734 101.671 18.758 101.371 18.806C101.071 18.854 100.801 18.932 100.561 19.04C100.333 19.136 100.147 19.268 100.003 19.436C99.8589 19.604 99.7869 19.808 99.7869 20.048C99.7869 20.324 99.8709 20.516 100.039 20.624C100.219 20.732 100.411 20.786 100.615 20.786C100.807 20.786 100.999 20.744 101.191 20.66C101.383 20.576 101.551 20.45 101.695 20.282C101.851 20.102 101.983 19.886 102.091 19.634C102.199 19.382 102.265 19.082 102.289 18.734ZM112.161 23.18C111.633 23.18 111.105 23.114 110.577 22.982C110.061 22.85 109.593 22.622 109.173 22.298C108.765 21.974 108.429 21.542 108.165 21.002C107.901 20.462 107.769 19.784 107.769 18.968C107.769 18.668 107.793 18.308 107.841 17.888C107.889 17.468 107.979 17.036 108.111 16.592C108.255 16.148 108.447 15.71 108.687 15.278C108.939 14.834 109.263 14.438 109.659 14.09C110.055 13.742 110.535 13.46 111.099 13.244C111.663 13.028 112.335 12.92 113.115 12.92C113.739 12.92 114.267 12.992 114.699 13.136C115.131 13.28 115.479 13.478 115.743 13.73C116.007 13.97 116.199 14.252 116.319 14.576C116.439 14.9 116.499 15.248 116.499 15.62C116.499 16.172 116.385 16.64 116.157 17.024C115.941 17.408 115.653 17.732 115.293 17.996C114.945 18.248 114.555 18.446 114.123 18.59C113.691 18.734 113.265 18.848 112.845 18.932C112.425 19.004 112.035 19.052 111.675 19.076C111.327 19.088 111.057 19.094 110.865 19.094C110.865 19.322 110.895 19.55 110.955 19.778C111.027 19.994 111.129 20.186 111.261 20.354C111.393 20.522 111.567 20.66 111.783 20.768C111.999 20.876 112.263 20.93 112.575 20.93C112.887 20.93 113.127 20.882 113.295 20.786C113.475 20.678 113.619 20.564 113.727 20.444C113.835 20.312 113.925 20.198 113.997 20.102C114.081 19.994 114.189 19.94 114.321 19.94C114.381 19.94 114.483 19.958 114.627 19.994C114.783 20.018 114.939 20.078 115.095 20.174C115.251 20.27 115.389 20.402 115.509 20.57C115.629 20.738 115.689 20.954 115.689 21.218C115.689 21.566 115.581 21.866 115.365 22.118C115.149 22.37 114.867 22.574 114.519 22.73C114.183 22.886 113.805 23 113.385 23.072C112.965 23.144 112.557 23.18 112.161 23.18ZM112.503 15.314C112.239 15.314 112.011 15.392 111.819 15.548C111.639 15.692 111.483 15.878 111.351 16.106C111.231 16.334 111.135 16.586 111.063 16.862C111.003 17.138 110.955 17.402 110.919 17.654C111.663 17.642 112.263 17.516 112.719 17.276C113.187 17.036 113.421 16.694 113.421 16.25C113.421 16.01 113.343 15.794 113.187 15.602C113.043 15.41 112.815 15.314 112.503 15.314Z" fill="#0984E3"/>
</svg>
